<?xml version="1.0" encoding="UTF-8" standalone="no"?>
<!-- Created with Inkscape (http://www.inkscape.org/) -->

<svg
   width="7680"
   height="4320"
   viewBox="0 0 2032 1143"
   version="1.1"
   id="svg1"
   inkscape:version="1.4 (e7c3feb1, 2024-10-09)"
   sodipodi:docname="nothing.svg"
   inkscape:export-filename="nothing.png"
   inkscape:export-xdpi="96"
   inkscape:export-ydpi="96"
   xmlns:inkscape="http://www.inkscape.org/namespaces/inkscape"
   xmlns:sodipodi="http://sodipodi.sourceforge.net/DTD/sodipodi-0.dtd"
   xmlns="http://www.w3.org/2000/svg"
   xmlns:svg="http://www.w3.org/2000/svg">
  <sodipodi:namedview
     id="namedview1"
     pagecolor="#ffffff"
     bordercolor="#000000"
     borderopacity="0.25"
     inkscape:showpageshadow="2"
     inkscape:pageopacity="0.0"
     inkscape:pagecheckerboard="0"
     inkscape:deskcolor="#d1d1d1"
     inkscape:document-units="mm"
     inkscape:zoom="0.64254905"
     inkscape:cx="2456.6218"
     inkscape:cy="2236.4051"
     inkscape:window-width="1432"
     inkscape:window-height="789"
     inkscape:window-x="0"
     inkscape:window-y="32"
     inkscape:window-maximized="0"
     inkscape:current-layer="layer1" />
  <defs
     id="defs1" />
  <g
     inkscape:label="Layer 1"
     inkscape:groupmode="layer"
     id="layer1">
    <path
       id="rect1"
       style="fill:#000000;stroke-width:2.82223;stroke-linecap:round;stroke-linejoin:round;stroke:none;fill-opacity:0.00392157"
       d="M 0 0 L 0 1143 L 2032 1143 L 2032 0 L 0 0 z M 952.55633 367.84835 L 961.5873 367.84835 L 961.5873 515.50704 L 962.4906 515.50704 C 964.59786 506.47592 967.90932 498.19728 972.42488 490.67134 C 977.24148 483.14542 983.11132 476.52249 990.03518 470.80279 C 997.26004 465.08307 1005.5387 460.71835 1014.8709 457.70798 C 1024.203 454.39657 1034.5887 452.74084 1046.0281 452.74084 C 1058.0697 452.74084 1069.0578 454.54718 1078.992 458.15963 C 1089.2273 461.77208 1097.9572 467.19059 1105.1822 474.41549 C 1112.7081 481.33935 1118.4278 490.06931 1122.3413 500.60562 C 1126.5558 510.84089 1128.6629 522.7317 1128.6629 536.27838 L 1128.6629 690.25916 L 1119.6319 690.25916 L 1119.6319 537.63333 C 1119.6319 524.08665 1117.675 512.64717 1113.7615 503.31501 C 1109.848 493.68182 1104.4295 485.85502 1097.5056 479.83428 C 1090.8828 473.51249 1083.056 468.99663 1074.0249 466.2873 C 1065.2948 463.27693 1055.9624 461.77181 1046.0281 461.77181 C 1032.1805 461.77181 1019.9884 464.48133 1009.4521 469.9 C 998.91577 475.01763 990.03519 482.09187 982.81029 491.12299 C 975.88643 499.85307 970.61854 510.08815 967.00609 521.82861 C 963.39364 533.56907 961.5873 545.91172 961.5873 558.85633 L 961.5873 690.25916 L 952.55633 690.25916 L 952.55633 367.84835 z M 1178.3343 367.84835 L 1187.3653 367.84835 L 1187.3653 413.45538 L 1178.3343 413.45538 L 1178.3343 367.84835 z M 859.53617 385.00751 L 868.56714 385.00751 L 868.56714 458.15963 L 920.9474 458.15963 L 920.9474 467.1906 L 868.56714 467.1906 L 868.56714 645.10378 C 868.56714 653.83386 869.47031 660.60687 871.27653 665.42347 C 873.38379 670.24007 875.94269 673.85275 878.95307 676.26105 C 881.96344 678.66935 885.2749 680.17446 888.88735 680.77653 C 892.49979 681.07757 896.11196 681.22819 899.72441 681.22819 L 911.91643 681.22819 C 915.52888 680.92715 918.08778 680.4753 919.59296 679.87323 L 919.59296 688.90472 C 916.88362 689.20575 914.17411 689.50647 911.46478 689.80751 C 909.05648 690.10855 904.39053 690.25916 897.46667 690.25916 C 886.93036 690.25916 877.89916 687.24893 870.37323 681.22819 C 863.14834 674.9064 859.53617 663.46692 859.53617 646.90987 L 859.53617 467.1906 L 817.08966 467.1906 L 817.08966 458.15963 L 859.53617 458.15963 L 859.53617 385.00751 z M 477.06855 452.74084 C 489.11005 452.74084 500.09768 454.54718 510.03192 458.15963 C 520.26718 461.77208 528.99767 467.19059 536.22257 474.41549 C 543.7485 481.33935 549.46773 490.06931 553.38121 500.60562 C 557.59574 510.84089 559.7033 522.7317 559.7033 536.27838 L 559.7033 690.25916 L 550.67233 690.25916 L 550.67233 537.63333 C 550.67233 524.08665 548.71537 512.64717 544.80189 503.31501 C 540.8884 493.68182 535.46989 485.85502 528.54603 479.83428 C 521.92321 473.51249 514.0959 468.99663 505.06478 466.2873 C 496.3347 463.27693 487.00279 461.77181 477.06855 461.77181 C 463.22083 461.77181 451.0288 464.48133 440.49249 469.9 C 429.95619 475.01763 421.0756 482.09187 413.85071 491.12299 C 406.92685 499.85307 401.65843 510.08815 398.04599 521.82861 C 394.43354 533.56907 392.62771 545.91172 392.62771 558.85633 L 392.62771 690.25916 L 383.59622 690.25916 L 383.59622 458.15963 L 392.62771 458.15963 L 392.62771 515.50704 L 393.5305 515.50704 C 395.63776 506.47592 398.94922 498.19728 403.46478 490.67134 C 408.28138 483.14542 414.15173 476.52249 421.07559 470.80279 C 428.30048 465.08307 436.57912 460.71835 445.91128 457.70798 C 455.24344 454.39657 465.62913 452.74084 477.06855 452.74084 z M 701.9432 452.74084 C 718.80129 452.74084 733.70284 456.20291 746.64745 463.12677 C 759.59206 469.74959 770.4296 478.63017 779.15968 489.76855 C 788.1908 500.90693 794.96381 513.85153 799.47937 528.60236 C 803.99493 543.05215 806.2526 558.25442 806.2526 574.2094 C 806.2526 590.16438 803.99493 605.51725 799.47937 620.26808 C 794.96381 634.71787 788.1908 647.51185 779.15968 658.65024 C 770.4296 669.78862 759.59206 678.6692 746.64745 685.29202 C 733.70284 691.91484 718.65119 695.2263 701.49207 695.2263 C 684.63398 695.2263 669.73242 691.91484 656.78782 685.29202 C 643.84321 678.6692 632.85557 669.78862 623.82445 658.65024 C 615.09437 647.51185 608.47146 634.71787 603.9559 620.26808 C 599.44034 605.51725 597.18215 590.16438 597.18215 574.2094 C 597.18215 558.25442 599.44034 543.05215 603.9559 528.60236 C 608.47146 513.85153 615.09437 500.90693 623.82445 489.76855 C 632.85557 478.63017 643.84321 469.74959 656.78782 463.12677 C 669.73242 456.20291 684.78407 452.74084 701.9432 452.74084 z M 1330.5085 452.74084 C 1342.5499 452.74084 1353.5375 454.54718 1363.4718 458.15963 C 1373.7071 461.77208 1382.4371 467.19059 1389.6619 474.41549 C 1397.1879 481.33935 1402.9076 490.06931 1406.8211 500.60562 C 1411.0356 510.84089 1413.1432 522.7317 1413.1432 536.27838 L 1413.1432 690.25916 L 1404.1117 690.25916 L 1404.1117 537.63333 C 1404.1117 524.08665 1402.1553 512.64717 1398.2418 503.31501 C 1394.3283 493.68182 1388.9093 485.85502 1381.9854 479.83428 C 1375.3626 473.51249 1367.5358 468.99663 1358.5047 466.2873 C 1349.7746 463.27693 1340.4427 461.77181 1330.5085 461.77181 C 1316.6607 461.77181 1304.4687 464.48133 1293.9324 469.9 C 1283.3961 475.01763 1274.5155 482.09187 1267.2906 491.12299 C 1260.3667 499.85307 1255.0984 510.08815 1251.4859 521.82861 C 1247.8734 533.56907 1246.0671 545.91172 1246.0671 558.85633 L 1246.0671 690.25916 L 1237.0361 690.25916 L 1237.0361 458.15963 L 1246.0671 458.15963 L 1246.0671 515.50704 L 1246.9704 515.50704 C 1249.0777 506.47592 1252.3891 498.19728 1256.9047 490.67134 C 1261.7213 483.14542 1267.5916 476.52249 1274.5155 470.80279 C 1281.7404 465.08307 1290.0185 460.71835 1299.3507 457.70798 C 1308.6829 454.39657 1319.0691 452.74084 1330.5085 452.74084 z M 1550.416 452.74084 C 1561.5544 452.74084 1571.94 454.54718 1581.5732 458.15963 C 1591.2064 461.47104 1599.7863 466.137 1607.3122 472.15774 C 1615.1392 478.17849 1621.6115 485.25273 1626.7291 493.38074 C 1632.1478 501.50874 1636.0612 510.38933 1638.4695 520.02252 L 1639.3723 520.02252 L 1639.3723 458.15963 L 1648.4038 458.15963 L 1648.4038 682.58263 C 1648.4038 714.49259 1639.9746 737.82288 1623.1164 752.5737 C 1606.2584 767.62557 1582.4762 775.15165 1551.7704 775.15165 C 1540.0299 775.15165 1528.8916 773.79714 1518.3554 771.08782 C 1507.819 768.37848 1498.4872 764.01324 1490.3592 757.99249 C 1482.2312 752.27278 1475.7589 744.74721 1470.9423 735.41506 C 1466.1257 726.38393 1463.5668 715.24517 1463.2657 701.99953 L 1472.2967 701.99953 C 1472.5978 713.43895 1474.8554 723.2227 1479.0699 731.35071 C 1483.5855 739.47871 1489.4558 746.10162 1496.6807 751.21926 C 1503.9056 756.3369 1512.1843 760.09969 1521.5164 762.50798 C 1531.1496 764.91627 1541.0835 766.12068 1551.3187 766.12068 C 1579.6163 766.12068 1601.2913 759.34715 1616.3432 745.80047 C 1631.6961 732.55483 1639.3723 711.48221 1639.3723 682.58263 L 1639.3723 612.59155 L 1638.4695 612.59155 C 1636.0612 622.82682 1631.696 632.00863 1625.3742 640.13664 C 1619.3534 648.26464 1612.1286 655.18827 1603.6995 660.90798 C 1595.5715 666.32665 1586.5403 670.54128 1576.6061 673.55165 C 1566.9729 676.26099 1557.1892 677.61549 1547.2549 677.61549 C 1530.9989 677.61549 1516.8504 674.60526 1504.8089 668.58451 C 1492.7674 662.56377 1482.6824 654.58636 1474.5544 644.65212 C 1466.7275 634.41686 1460.707 622.52605 1456.4925 608.97937 C 1452.579 595.43269 1450.622 581.28369 1450.622 566.53286 C 1450.622 550.87892 1452.7292 536.2786 1456.9436 522.73192 C 1461.1582 508.8842 1467.4803 496.84277 1475.9094 486.60751 C 1484.3385 476.0712 1494.7241 467.79256 1507.0667 461.77181 C 1519.7102 455.75107 1534.16 452.74084 1550.416 452.74084 z M 1178.3343 458.15963 L 1187.3653 458.15963 L 1187.3653 690.25916 L 1178.3343 690.25916 L 1178.3343 458.15963 z M 701.9432 461.77181 C 686.28926 461.77181 672.44149 464.93265 660.4 471.25444 C 648.65954 477.57622 638.72569 486.00548 630.59768 496.54178 C 622.46968 506.77706 616.2981 518.66786 612.08357 532.21454 C 608.17009 545.76122 606.21364 559.75961 606.21364 574.2094 C 606.21364 588.96023 608.17009 603.1087 612.08357 616.65538 C 616.2981 630.20206 622.46968 642.244 630.59768 652.78031 C 638.72569 663.01558 648.65954 671.2937 660.4 677.61549 C 672.44149 683.63623 686.28926 686.64698 701.9432 686.64698 C 717.2961 686.64698 730.84315 683.63623 742.58361 677.61549 C 754.62511 671.2937 764.70957 663.01558 772.83758 652.78031 C 780.96559 642.244 786.98656 630.20206 790.90004 616.65538 C 795.11456 603.1087 797.22162 588.96023 797.22162 574.2094 C 797.22162 559.75961 795.11456 545.76122 790.90004 532.21454 C 786.98656 518.66786 780.96559 506.77706 772.83758 496.54178 C 764.70957 486.00548 754.62511 477.57622 742.58361 471.25444 C 730.84315 464.93265 717.2961 461.77181 701.9432 461.77181 z M 1550.416 461.77181 C 1535.3641 461.77181 1522.1182 464.63195 1510.6788 470.35165 C 1499.5404 475.77033 1490.0579 483.29589 1482.231 492.92909 C 1474.705 502.56229 1468.9853 513.70105 1465.0718 526.34462 C 1461.4594 538.98818 1459.653 552.38411 1459.653 566.53286 C 1459.653 580.98266 1461.4594 594.3791 1465.0718 606.72162 C 1468.9853 619.06415 1474.5545 629.90117 1481.7793 639.23333 C 1489.3053 648.26445 1498.4871 655.48931 1509.3244 660.90798 C 1520.1618 666.02562 1532.6545 668.58451 1546.8033 668.58451 C 1561.8551 668.58451 1575.101 665.875 1586.5404 660.45633 C 1597.9798 655.03765 1607.4623 647.81281 1614.9882 638.78168 C 1622.8152 629.44953 1628.6856 618.6125 1632.5991 606.26997 C 1636.8136 593.6264 1638.9212 580.38058 1638.9212 566.53286 C 1638.9212 553.28722 1636.9642 540.34262 1633.0507 527.69906 C 1629.4382 515.05548 1623.8691 503.91723 1616.3432 494.28404 C 1609.1183 484.34981 1599.9365 476.52249 1588.7981 470.80279 C 1577.6597 464.78204 1564.8658 461.77181 1550.416 461.77181 z " />
  </g>
</svg>
